<?xml version="1.0" encoding="UTF-8"?>
<!-- Created with Inkscape (http://www.inkscape.org/) -->
<svg width="12" height="12" version="1.1" viewBox="0 0 12 12" xmlns="http://www.w3.org/2000/svg">
 <path d="m0.0016 0.5461c1e-3 2.5639-4e-3 4.9499 0 6.9799-0.0010309 0.801 0.5496 1.163 1.1714 1.155h8.208l-1.719 1.979c-0.701 0.81 0.398 1.81 1.074 1.1 0.981-1.05 2.014-1.977 3.024-3.027 0.32-0.317 0.32-0.806-0.01-1.119-0.67-0.672-1.942-1.872-3.014-3.025-0.812-0.876-1.949 0.261-1.096 1.114l1.741 1.821h-7.894c-0.19 0-0.314-0.128-0.314-0.344l3e-3 -6.621c1e-3 -0.7311-1.1744-0.7549-1.1744-0.0129z" stroke-width="0"/>
</svg>
