<?xml version="1.0" encoding="UTF-8" standalone="no"?>
<!-- Uploaded to: SVG Repo, www.svgrepo.com, Generator: SVG Repo Mixer Tools -->

<svg
   fill="#000000"
   width="24"
   height="24"
   viewBox="0 0 24 24"
   version="1.1"
   id="svg1"
   sodipodi:docname="fire.svg"
   inkscape:version="1.3 (0e150ed6c4, 2023-07-21)"
   xmlns:inkscape="http://www.inkscape.org/namespaces/inkscape"
   xmlns:sodipodi="http://sodipodi.sourceforge.net/DTD/sodipodi-0.dtd"
   xmlns="http://www.w3.org/2000/svg"
   xmlns:svg="http://www.w3.org/2000/svg">
  <path
     d="M 13,21.79 A 1.063,1.063 0 0 1 12.89,20.66 C 13.11,20.22 13.19,19.72 13.15,19.19 A 2.756,2.756 0 0 0 12.8,18.18 2.653,2.653 0 0 0 12.07,17.38 5.184,5.184 0 0 1 10.13,14.39 C 7.909,17.34 8.774,18.99 9.831,20.47 A 0.9794,0.9794 0 0 1 9.831,21.63 1.139,1.139 0 0 1 9.302,22.03 1.097,1.097 0 0 1 8.686,22.05 C 7.231,21.68 5.868,21.02 4.946,19.94 A 6.135,6.135 0 0 1 3.761,17.91 6.3,6.3 0 0 1 3.416,15.56 C 3.416,15.56 3.242,12.32 7.132,9.167 7.132,9.167 11.72,5.268 10.13,2.386 A 0.8132,0.8132 0 0 1 10.27,1.532 0.7306,0.7306 0 0 1 11.08,1.338 L 11.28,1.413 A 9.992,9.992 0 0 1 15.15,5.997 C 15.92,7.846 15.92,10 15.4,11.93 15.84,11.55 16.17,11.09 16.45,10.56 L 16.5,10.5 C 16.74,9.862 17.55,10.06 17.86,10.47 17.99,10.65 20.88,14.85 19.31,18.38 A 7.223,7.223 0 0 1 16.92,21.06 8.024,8.024 0 0 1 14.1,22.23 1.092,1.092 0 0 1 13.48,22.18 1.135,1.135 0 0 1 13,21.79 Z M 10.69,11.62 A 0.5526,0.5526 0 0 1 11.39,11.82 C 11.46,11.88 11.48,11.97 11.5,12.08 L 11.57,12.52 C 11.59,13.2 11.57,13.88 11.83,14.54 12.09,15.21 12.53,15.78 13.06,16.24 A 4.007,4.007 0 0 1 14.58,18.11 C 14.87,18.84 14.91,19.65 14.67,20.4 A 5.4,5.4 0 0 0 16.5,19.43 L 16.63,19.32 C 17.09,18.97 17.44,18.51 17.71,18 17.97,17.47 18.13,16.9 18.17,16.33 18.26,14.99 17.8,13.64 17.09,12.43 16.76,12.92 16.32,13.27 15.79,13.49 15.46,13.62 15.13,13.71 14.78,13.73 A 1.037,1.037 0 0 1 14.21,13.6 1.089,1.089 0 0 1 13.79,13.18 1.08,1.08 0 0 1 13.75,12.21 C 14.27,10.96 14.45,9.536 14.23,8.167 A 7.692,7.692 0 0 0 12.07,4.031 C 11.85,6.917 8.906,9.605 8.296,10.18 A 4.632,4.632 0 0 1 8.004,10.44 C 4.825,13 5.043,15.34 5.043,15.45 A 4.817,4.817 0 0 0 5.644,18.13 C 6.121,18.97 6.808,19.67 7.634,20.16 6.683,18.05 6.683,15.54 10.2,11.95 Z"
     id="path1"
     style="stroke-width:1.30939" />
  <defs
     id="defs1" />
  <sodipodi:namedview
     id="namedview1"
     pagecolor="#ffffff"
     bordercolor="#000000"
     borderopacity="0.25"
     inkscape:showpageshadow="2"
     inkscape:pageopacity="0.0"
     inkscape:pagecheckerboard="0"
     inkscape:deskcolor="#d1d1d1"
     inkscape:zoom="16.08"
     inkscape:cx="23.26"
     inkscape:cy="23.97"
     inkscape:window-width="2560"
     inkscape:window-height="1351"
     inkscape:window-x="3831"
     inkscape:window-y="-9"
     inkscape:window-maximized="1"
     inkscape:current-layer="svg1" />
</svg>
