<?xml version="1.0" encoding="UTF-8" standalone="no"?>
<!-- Uploaded to: SVG Repo, www.svgrepo.com, Generator: SVG Repo Mixer Tools -->

<svg
   width="24"
   height="24"
   viewBox="0 0 24 24"
   fill="none"
   version="1.1"
   id="svg1"
   sodipodi:docname="glow.svg"
   inkscape:version="1.3 (0e150ed6c4, 2023-07-21)"
   xmlns:inkscape="http://www.inkscape.org/namespaces/inkscape"
   xmlns:sodipodi="http://sodipodi.sourceforge.net/DTD/sodipodi-0.dtd"
   xmlns="http://www.w3.org/2000/svg"
   xmlns:svg="http://www.w3.org/2000/svg">
  <defs
     id="defs1" />
  <sodipodi:namedview
     id="namedview1"
     pagecolor="#ffffff"
     bordercolor="#000000"
     borderopacity="0.25"
     inkscape:showpageshadow="2"
     inkscape:pageopacity="0.0"
     inkscape:pagecheckerboard="0"
     inkscape:deskcolor="#d1d1d1"
     inkscape:zoom="45.25"
     inkscape:cx="3.89"
     inkscape:cy="12.48"
     inkscape:window-width="2560"
     inkscape:window-height="1351"
     inkscape:window-x="3831"
     inkscape:window-y="-9"
     inkscape:window-maximized="1"
     inkscape:current-layer="svg1" />
  <path
     fill-rule="evenodd"
     clip-rule="evenodd"
     d="M 12.9,2.674 V 5.43 C 12.9,6.481 11.26,6.415 11.26,5.43 V 2.674 C 11.26,1.527 12.9,1.483 12.9,2.674 Z M 18.97,5.981 17.04,7.91 C 16.36,8.605 15.24,7.51 15.93,6.808 L 17.86,4.878 C 18.63,4.132 19.66,5.299 18.97,5.981 Z M 6.291,4.878 8.221,6.808 C 8.912,7.502 7.814,8.603 7.118,7.91 L 5.189,5.981 C 4.418,5.21 5.703,4.29 6.291,4.878 Z M 2.984,10.95 H 5.74 C 6.836,10.95 6.836,12.59 5.74,12.59 H 2.984 C 1.889,12.59 1.889,10.95 2.984,10.95 Z M 18.42,10.95 H 21.17 C 22.32,10.95 22.32,12.59 21.17,12.59 H 18.42 C 17.27,12.59 17.27,10.95 18.42,10.95 Z M 8.221,17 6.291,18.93 C 5.571,19.69 4.34,18.41 5.189,17.55 L 7.118,15.62 C 7.889,14.87 9.054,16.18 8.221,17 Z M 17.04,15.62 18.97,17.55 C 19.84,18.44 18.59,19.66 17.86,18.93 L 15.93,17 C 15.07,16.12 16.32,14.9 17.04,15.62 Z M 12.9,18.11 V 20.86 C 12.9,21.98 11.26,21.94 11.26,20.86 V 18.11 C 11.26,16.94 12.9,16.88 12.9,18.11 Z"
     fill="#1c274c"
     id="path1"
     style="fill:#000000;fill-opacity:1;stroke-width:0.827;stroke-dasharray:none"
     sodipodi:nodetypes="ssssscssccssssssssssssssssssssssssssssss" />
</svg>
