<?xml version="1.0" encoding="UTF-8" standalone="no"?>
<!-- Uploaded to: SVG Repo, www.svgrepo.com, Generator: SVG Repo Mixer Tools -->

<svg
   width="24"
   height="24"
   viewBox="0 0 0.72 0.72"
   fill="none"
   version="1.1"
   id="svg1"
   sodipodi:docname="glow.svg"
   inkscape:version="1.3 (0e150ed6c4, 2023-07-21)"
   xmlns:inkscape="http://www.inkscape.org/namespaces/inkscape"
   xmlns:sodipodi="http://sodipodi.sourceforge.net/DTD/sodipodi-0.dtd"
   xmlns="http://www.w3.org/2000/svg"
   xmlns:svg="http://www.w3.org/2000/svg">
  <defs
     id="defs1" />
  <sodipodi:namedview
     id="namedview1"
     pagecolor="#ffffff"
     bordercolor="#000000"
     borderopacity="0.25"
     inkscape:showpageshadow="2"
     inkscape:pageopacity="0.0"
     inkscape:pagecheckerboard="0"
     inkscape:deskcolor="#d1d1d1"
     inkscape:zoom="22.74"
     inkscape:cx="22.78"
     inkscape:cy="19.06"
     inkscape:window-width="2560"
     inkscape:window-height="1351"
     inkscape:window-x="3831"
     inkscape:window-y="-9"
     inkscape:window-maximized="1"
     inkscape:current-layer="svg1" />
  <path
     fill-rule="evenodd"
     clip-rule="evenodd"
     d="M 0.36,0 C 0.3769,0 0.3909,0.0138 0.3909,0.0309 V 0.1296 C 0.3909,0.1466 0.3769,0.1605 0.36,0.1605 0.3431,0.1605 0.3291,0.1466 0.3291,0.1296 V 0.0309 C 0.3291,0.0138 0.3431,0 0.36,0 Z M 0.6147,0.1054 C 0.6266,0.1175 0.6266,0.137 0.6147,0.1491 L 0.5447,0.2189 C 0.5328,0.2309 0.5131,0.2309 0.5011,0.2189 0.4892,0.2069 0.4892,0.1873 0.5011,0.1753 L 0.5711,0.1054 C 0.583,0.0934 0.6023,0.0934 0.6147,0.1054 Z M 0.1054,0.1054 C 0.1175,0.0934 0.137,0.0934 0.1491,0.1054 L 0.2189,0.1753 C 0.2309,0.1873 0.2309,0.2069 0.2189,0.2189 0.2068,0.231 0.1873,0.231 0.1753,0.2189 L 0.1054,0.1491 C 0.0934,0.137 0.0934,0.1175 0.1054,0.1054 Z M 0,0.36 C 0,0.3431 0.0138,0.3291 0.0309,0.3291 H 0.1296 C 0.1466,0.3291 0.1605,0.3431 0.1605,0.36 0.1605,0.3769 0.1466,0.3909 0.1296,0.3909 H 0.0309 C 0.0138,0.3909 0,0.3769 0,0.36 Z M 0.5595,0.36 C 0.5595,0.3431 0.5735,0.3291 0.5904,0.3291 H 0.6891 C 0.706,0.3291 0.72,0.3431 0.72,0.36 0.72,0.3769 0.706,0.3909 0.6891,0.3909 H 0.5904 C 0.5735,0.3909 0.5595,0.3769 0.5595,0.36 Z M 0.2189,0.5011 C 0.2309,0.5131 0.2309,0.5328 0.2189,0.5447 L 0.1491,0.6147 C 0.137,0.6266 0.1175,0.6266 0.1054,0.6147 0.0934,0.6023 0.0934,0.583 0.1054,0.5711 L 0.1753,0.5011 C 0.1873,0.4892 0.2069,0.4892 0.2189,0.5011 Z M 0.5011,0.5011 C 0.5131,0.4892 0.5328,0.4892 0.5447,0.5011 L 0.6147,0.5711 C 0.6266,0.583 0.6266,0.6023 0.6147,0.6147 0.6023,0.6266 0.583,0.6266 0.5711,0.6147 L 0.5011,0.5447 C 0.4892,0.5328 0.4892,0.5131 0.5011,0.5011 Z M 0.36,0.5595 C 0.3769,0.5595 0.3909,0.5735 0.3909,0.5904 V 0.6891 C 0.3909,0.706 0.3769,0.72 0.36,0.72 0.3431,0.72 0.3291,0.706 0.3291,0.6891 V 0.5904 C 0.3291,0.5735 0.3431,0.5595 0.36,0.5595 Z"
     fill="#1c274c"
     id="path1"
     style="stroke-width:0.03;fill:#000000;fill-opacity:1;stroke-dasharray:none" />
</svg>
