<?xml version="1.0" encoding="UTF-8" standalone="no"?>
<!-- Uploaded to: SVG Repo, www.svgrepo.com, Generator: SVG Repo Mixer Tools -->

<svg
   width="24"
   height="24"
   viewBox="0 0 24 24"
   fill="none"
   version="1.1"
   id="svg1"
   sodipodi:docname="glow.svg"
   inkscape:version="1.3 (0e150ed6c4, 2023-07-21)"
   xmlns:inkscape="http://www.inkscape.org/namespaces/inkscape"
   xmlns:sodipodi="http://sodipodi.sourceforge.net/DTD/sodipodi-0.dtd"
   xmlns="http://www.w3.org/2000/svg"
   xmlns:svg="http://www.w3.org/2000/svg">
  <defs
     id="defs1" />
  <sodipodi:namedview
     id="namedview1"
     pagecolor="#ffffff"
     bordercolor="#000000"
     borderopacity="0.25"
     inkscape:showpageshadow="2"
     inkscape:pageopacity="0.0"
     inkscape:pagecheckerboard="0"
     inkscape:deskcolor="#d1d1d1"
     inkscape:zoom="45.25"
     inkscape:cx="3.889"
     inkscape:cy="12.47"
     inkscape:window-width="2560"
     inkscape:window-height="1351"
     inkscape:window-x="3831"
     inkscape:window-y="-9"
     inkscape:window-maximized="1"
     inkscape:current-layer="svg1" />
  <path
     fill-rule="evenodd"
     clip-rule="evenodd"
     d="M 12.08,1.848 C 12.63,1.848 12.9,2.123 12.9,2.674 V 5.43 C 12.9,5.981 12.47,6.257 12.08,6.257 11.69,6.257 11.26,5.981 11.26,5.43 V 2.674 C 11.26,2.123 11.53,1.848 12.08,1.848 Z M 18.97,4.878 C 19.23,5.138 19.3,5.657 18.97,5.981 L 17.04,7.91 C 16.77,8.185 16.19,8.171 15.93,7.91 15.68,7.651 15.66,7.083 15.93,6.808 L 17.86,4.878 C 18.23,4.52 18.71,4.618 18.97,4.878 Z M 5.189,4.878 C 5.448,4.619 5.856,4.443 6.291,4.878 L 8.221,6.808 C 8.495,7.083 8.48,7.651 8.221,7.91 7.962,8.17 7.394,8.185 7.118,7.91 L 5.189,5.981 C 4.754,5.546 4.929,5.138 5.189,4.878 Z M 2.157,11.77 C 2.157,11.38 2.434,10.95 2.984,10.95 H 5.74 C 6.291,10.95 6.568,11.38 6.568,11.77 6.568,12.16 6.291,12.59 5.74,12.59 H 2.984 C 2.434,12.59 2.157,12.16 2.157,11.77 Z M 17.59,11.77 C 17.59,11.22 17.86,10.95 18.42,10.95 H 21.17 C 21.72,10.95 22,11.22 22,11.77 22,12.32 21.72,12.59 21.17,12.59 H 18.42 C 17.86,12.59 17.59,12.32 17.59,11.77 Z M 8.221,15.62 C 8.513,15.92 8.657,16.57 8.221,17 L 6.291,18.93 C 6.016,19.22 5.448,19.19 5.189,18.93 4.864,18.62 4.754,17.99 5.189,17.55 L 7.118,15.62 C 7.394,15.35 7.928,15.33 8.221,15.62 Z M 15.93,15.62 C 16.19,15.36 16.77,15.35 17.04,15.62 L 18.97,17.55 C 19.4,17.99 19.3,18.62 18.97,18.93 18.71,19.19 18.15,19.22 17.86,18.93 L 15.93,17 C 15.51,16.57 15.61,15.95 15.93,15.62 Z M 12.08,17.28 C 12.47,17.28 12.9,17.55 12.9,18.11 V 20.86 C 12.9,21.41 12.47,21.69 12.08,21.69 11.69,21.69 11.26,21.41 11.26,20.86 V 18.11 C 11.26,17.55 11.69,17.28 12.08,17.28 Z"
     fill="#1c274c"
     id="path1"
     style="fill:#000000;fill-opacity:1;stroke-width:0.826695;stroke-dasharray:none"
     sodipodi:nodetypes="sssasssscsascsassassaasszssassssssszssasszassassaassassa" />
</svg>
