<?xml version="1.0" encoding="UTF-8" standalone="no"?>
<!-- Uploaded to: SVG Repo, www.svgrepo.com, Generator: SVG Repo Mixer Tools -->

<svg
   width="24"
   height="24"
   viewBox="0 0 0.72 0.72"
   fill="none"
   version="1.1"
   id="svg1"
   sodipodi:docname="star2.svg"
   inkscape:version="1.3 (0e150ed6c4, 2023-07-21)"
   xmlns:inkscape="http://www.inkscape.org/namespaces/inkscape"
   xmlns:sodipodi="http://sodipodi.sourceforge.net/DTD/sodipodi-0.dtd"
   xmlns="http://www.w3.org/2000/svg"
   xmlns:svg="http://www.w3.org/2000/svg">
  <defs
     id="defs1" />
  <sodipodi:namedview
     id="namedview1"
     pagecolor="#ffffff"
     bordercolor="#000000"
     borderopacity="0.25"
     inkscape:showpageshadow="2"
     inkscape:pageopacity="0.0"
     inkscape:pagecheckerboard="0"
     inkscape:deskcolor="#d1d1d1"
     inkscape:zoom="16.08"
     inkscape:cx="21.33"
     inkscape:cy="16.88"
     inkscape:window-width="2560"
     inkscape:window-height="1351"
     inkscape:window-x="3831"
     inkscape:window-y="-9"
     inkscape:window-maximized="1"
     inkscape:current-layer="svg1" />
  <path
     d="M 0.36,0.1032 0.4182,0.2504 C 0.4233,0.264 0.4262,0.2708 0.4302,0.2765 0.4339,0.2817 0.4382,0.2861 0.4433,0.2898 0.449,0.2938 0.4558,0.2965 0.4696,0.3019 L 0.6168,0.36 0.4696,0.4182 C 0.4558,0.4233 0.449,0.4262 0.4433,0.4302 0.4382,0.4339 0.4339,0.4382 0.4302,0.4433 0.4262,0.449 0.4233,0.4558 0.4182,0.4696 L 0.36,0.6168 0.3019,0.4696 C 0.2965,0.4558 0.2938,0.449 0.2898,0.4433 0.2861,0.4382 0.2817,0.4339 0.2765,0.4302 0.2708,0.4262 0.264,0.4233 0.2504,0.4182 L 0.1032,0.36 0.2504,0.3019 C 0.264,0.2965 0.2708,0.2938 0.2765,0.2898 0.2817,0.2861 0.2861,0.2817 0.2898,0.2765 0.2938,0.2708 0.2965,0.264 0.3019,0.2504 Z"
     stroke="#000000"
     stroke-width="0.0570744"
     stroke-linecap="round"
     stroke-linejoin="round"
     id="path1"
     style="fill:none;stroke-width:0.03;stroke-dasharray:none" />
</svg>
