<?xml version="1.0" encoding="UTF-8" standalone="no"?>
<!-- Uploaded to: SVG Repo, www.svgrepo.com, Generator: SVG Repo Mixer Tools -->

<svg
   width="24"
   height="24"
   viewBox="0 0 24 24"
   version="1.1"
   id="svg1"
   sodipodi:docname="star.svg"
   inkscape:version="1.3 (0e150ed6c4, 2023-07-21)"
   xmlns:inkscape="http://www.inkscape.org/namespaces/inkscape"
   xmlns:sodipodi="http://sodipodi.sourceforge.net/DTD/sodipodi-0.dtd"
   xmlns="http://www.w3.org/2000/svg"
   xmlns:svg="http://www.w3.org/2000/svg">
  <defs
     id="defs1" />
  <sodipodi:namedview
     id="namedview1"
     pagecolor="#ffffff"
     bordercolor="#000000"
     borderopacity="0.25"
     inkscape:showpageshadow="2"
     inkscape:pageopacity="0.0"
     inkscape:pagecheckerboard="0"
     inkscape:deskcolor="#d1d1d1"
     inkscape:zoom="22.74"
     inkscape:cx="16.31"
     inkscape:cy="19.42"
     inkscape:window-width="2560"
     inkscape:window-height="1351"
     inkscape:window-x="3831"
     inkscape:window-y="-9"
     inkscape:window-maximized="1"
     inkscape:current-layer="svg1" />
  <path
     d="M 21.26,9.83 C 21.19,9.627 21.02,9.479 20.82,9.457 L 14.88,8.821 12.47,3.056 C 12.39,2.86 12.2,2.732 12,2.732 11.8,2.732 11.61,2.859 11.52,3.057 L 9.12,8.821 3.181,9.457 C 2.978,9.479 2.806,9.627 2.744,9.83 2.68,10.03 2.738,10.26 2.89,10.4 L 7.341,14.6 6.079,20.77 C 6.037,20.97 6.116,21.18 6.279,21.32 6.369,21.39 6.474,21.42 6.582,21.42 6.671,21.42 6.759,21.39 6.84,21.35 L 12,18.18 17.16,21.35 C 17.33,21.45 17.55,21.44 17.72,21.31 17.88,21.18 17.96,20.97 17.91,20.77 L 16.66,14.6 21.11,10.4 C 21.26,10.26 21.32,10.03 21.26,9.83 Z"
     id="path1"
     style="fill:none;stroke:#000000;stroke-width:2;stroke-dasharray:none;stroke-opacity:1" />
</svg>
