<?xml version="1.0" encoding="UTF-8" standalone="no"?>
<!-- Uploaded to: SVG Repo, www.svgrepo.com, Generator: SVG Repo Mixer Tools -->

<svg
   width="24"
   height="24"
   viewBox="0 0 24 24"
   fill="none"
   version="1.1"
   id="svg9"
   sodipodi:docname="sun.svg"
   inkscape:version="1.3 (0e150ed6c4, 2023-07-21)"
   xmlns:inkscape="http://www.inkscape.org/namespaces/inkscape"
   xmlns:sodipodi="http://sodipodi.sourceforge.net/DTD/sodipodi-0.dtd"
   xmlns="http://www.w3.org/2000/svg"
   xmlns:svg="http://www.w3.org/2000/svg">
  <defs
     id="defs9" />
  <sodipodi:namedview
     id="namedview9"
     pagecolor="#ffffff"
     bordercolor="#000000"
     borderopacity="0.25"
     inkscape:showpageshadow="2"
     inkscape:pageopacity="0.0"
     inkscape:pagecheckerboard="0"
     inkscape:deskcolor="#d1d1d1"
     inkscape:zoom="45.25"
     inkscape:cx="13.57"
     inkscape:cy="13.89"
     inkscape:window-width="2560"
     inkscape:window-height="1351"
     inkscape:window-x="3831"
     inkscape:window-y="-9"
     inkscape:window-maximized="1"
     inkscape:current-layer="svg9" />
  <path
     id="path9"
     d="M 4.91,18.03 6,17 C 6.602,16.7 7.309,17.35 7,18 L 6,19.09 C 5.258,19.8 4.227,18.71 4.91,18.03 Z M 17,6 18,4.91 C 18.68,4.211 19.82,5.25 19.09,6 L 18,7 C 17.35,7.718 16.4,6.685 17,6 Z M 18.03,19.09 17,18 C 16.7,17.37 17.37,16.7 18,17 L 19.09,18 C 19.77,18.68 18.73,19.79 18.03,19.09 Z M 6,7 4.91,6 C 4.199,5.289 5.287,4.197 6,4.91 L 7,6 C 7.611,6.679 6.636,7.721 6,7 Z M 4.25,12.75 H 2.75 C 1.77,12.75 1.77,11.25 2.75,11.25 H 4.25 C 5.23,11.25 5.23,12.75 4.25,12.75 Z M 21.25,12.75 H 19.75 C 18.77,12.75 18.77,11.25 19.75,11.25 H 21.25 C 22.23,11.25 22.23,12.75 21.25,12.75 Z M 11.25,21.25 V 19.75 C 11.25,18.77 12.75,18.77 12.75,19.75 V 21.25 C 12.75,22.23 11.25,22.23 11.25,21.25 Z M 11.25,4.25 V 2.75 C 11.25,1.77 12.75,1.77 12.75,2.75 V 4.25 C 12.75,5.225 11.25,5.225 11.25,4.25 Z M 12,17.75 C 9.73,17.75 6.418,15.93 6.423,12.06 6.428,7.982 9.647,6.255 11.98,6.255 14.53,6.255 17.77,7.941 17.75,12 17.73,15.16 15.16,17.75 12,17.75 Z M 11.98,7.772 C 9.831,7.772 7.965,9.583 7.965,12.1 7.965,14.15 9.568,16.24 12.01,16.24 14.85,16.24 16.25,13.99 16.25,12 16.25,9.681 14.34,7.772 11.98,7.772 Z"
     style="fill:#000000;fill-opacity:1" />
</svg>
